<svg version="1.1" height="100px" width="500px" viewBox="0.0 0.0 1200 175" fill="none" stroke="none" stroke-linecap="square" stroke-miterlimit="10" xmlns:xlink="http://www.w3.org/1999/xlink" xmlns="http://www.w3.org/2000/svg"><style>svg {background-color: #28363F;}</style><clipPath id="p.0"><path d="m0 0l357.8714 0l0 174.57742l-357.8714 0l0 -174.57742z" clip-rule="nonzero"/></clipPath><g clip-path="url(#p.0)"><path fill="#000000" fill-opacity="0.0" d="m0 0l357.8714 0l0 174.57742l-357.8714 0z" fill-rule="evenodd"/><path fill="#000000" fill-opacity="0.0" d="m1.4291339 0l363.02362 0l0 171.46457l-363.02362 0z" fill-rule="evenodd"/><path fill="#3d85c6" d="m22.991634 140.8175q-0.875 -9.0 -2.375 -20.0625q-1.5 -11.0625 -4.0625 -28.375q-2.562501 -17.75 -3.718751 -26.59375q-1.15625 -8.84375 -1.21875 -12.78125q2.375 -5.375 7.593751 -11.96875q5.21875 -6.59375 15.28125 -10.65625q11.9375 2.25 27.875 2.25q13.624996 0 26.124996 -1.5625q0.8125 1.625 0.8125 5.0q0 5.0625 -1.6875 10.9375q-1.6875 5.875 -4.0625 8.0625q-3.0 0.3125 -8.125 0.3125q-10.9375 0 -22.312496 -1.75q-11.375 -1.75 -17.3125 -4.9375l1.1875 19.375l16.25 -4.8125q1.8125 2.75 1.8125 7.875q0 4.3125 -1.125 8.84375q-1.125 4.53125 -2.3125 6.21875q-3.4375 0.125 -7.0 -1.0625q-3.5625 -1.1875 -6.5 -2.75q1.8125 34.6875 1.8125 52.4375q0 5.75 -0.1875 10.4375q-0.5625 3.4375 -3.46875 6.59375q-2.90625 3.15625 -6.90625 5.15625q-4.0 2.0 -7.625 2.25q-4.875 -0.875 -8.062501 -3.5q-3.1875 -2.625 -5.5 -5.875q-0.0625 -3.1875 0.40625 -5.3125q0.46875 -2.125 1.71875 -5.6875l12.687501 1.9375zm37.875 -22.1875q0 -1.1875 0.25 -2.125q0.25 -0.9375 1.6875 -4.8125q2.3124962 -6.1875 3.9374962 -10.875l-8.187496 -32.5625q1.9375 -2.3125 5.1875 -4.40625q3.2499962 -2.09375 7.156246 -3.375q3.90625 -1.28125 7.65625 -1.28125q6.1875 0 10.3125 3.625q-0.3125 1.875 -0.8125 6.6875q-1.25 11.75 -2.5625 21.46875q-1.3125 9.71875 -2.9375 16.40625l-1.1875 4.875l9.375 -4.1875l4.9375 7.8125q-2.75 6.375 -7.25 11.8125q-4.5 5.4375 -9.9375 5.4375q-2.9375 0 -7.1875 -2.28125q-4.25 -2.28125 -7.343746 -5.65625q-3.09375 -3.375 -3.09375 -6.5625zm109.875 -4.1875q-3.5 8.3125 -8.0 13.5q-4.5 5.1875 -9.625 5.1875q-2.875 0 -6.21875 -1.75q-3.34375 -1.75 -5.96875 -4.5q-0.1875 -0.1875 -1.1875 -1.21875q-1.0 -1.03125 -1.5625 -2.53125q-0.5625 -1.5 -0.5625 -3.5q0 -1.0 0.0625 -1.5625q0.25 -2.8125 1.0 -14.6875l0.1875 -2.4375l-0.3125 -0.125q-3.4375 9.125 -7.9375 18.25q-4.5000076 9.125 -8.437508 12.5q-1.8125 1.5625 -3.6875 1.5625q-1.4375 0 -2.90625 -0.78125q-1.46875 -0.78125 -3.78125 -2.40625q-1.0625 -0.75 -2.75 -1.6875q-2.6875 -1.5 -4.09375 -2.71875q-1.40625 -1.21875 -1.46875 -2.84375l-0.0625 -5.1875q-0.125 -9.0625 -0.40625 -15.03125q-0.28125 -5.96875 -1.21875 -12.9375q-0.9375 -6.96875 -2.875 -13.59375q-0.75 -2.5625 -0.75 -3.4375q0 -0.75 0.34375 -1.5q0.34375 -0.75 1.21875 -1.9375q3.375 -4.4375 8.0 -7.15625q4.625 -2.71875 8.4375 -3.84375q3.8125 -1.125 6.125 -1.4375q4.4375 3.0625 7.7187576 7.40625q3.28125 4.34375 7.34375 11.09375l0.3125 -0.125q-0.5625 -7.125 -2.03125 -18.40625q-1.46875 -11.28125 -1.71875 -13.28125q-1.0 -7.625 -1.125 -8.875q1.125 -1.375 4.71875 -2.375q3.59375 -1.0 7.96875 -1.0q4.75 0 9.125 1.34375q4.375 1.34375 7.5 4.21875q0.0625 0.3125 0.0625 2.0625q0 6.5 -0.96875 21.5q-0.96875 15.0 -2.6875 29.9375q-1.71875 14.9375 -3.96875 22.5l10.6875 -5.75l5.5 7.5625zm-46.625008 -3.75q3.0 -3.0 7.0312576 -10.09375q4.03125 -7.09375 6.34375 -12.09375l0.125 -1.5l-0.0625 -3.5q-2.4375 -0.625 -8.0 -1.75l-5.1875076 -1.125l0.125 6.6875q0.1875 10.3125 -2.25 22.5l1.875 0.875zm121.62501 3.75q-3.5 8.3125 -8.0 13.5q-4.5 5.1875 -9.625 5.1875q-2.875 0 -6.21875 -1.75q-3.34375 -1.75 -5.96875 -4.5q-0.1875 -0.1875 -1.1875 -1.21875q-1.0 -1.03125 -1.5625 -2.53125q-0.5625 -1.5 -0.5625 -3.5q0 -1.0 0.0625 -1.5625q0.25 -2.8125 1.0 -14.6875l0.1875 -2.4375l-0.3125 -0.125q-3.4375 9.125 -7.9375 18.25q-4.5 9.125 -8.4375 12.5q-1.8125 1.5625 -3.6875 1.5625q-1.4375 0 -2.90625 -0.78125q-1.46875 -0.78125 -3.78125 -2.40625q-1.0625 -0.75 -2.75 -1.6875q-2.6875 -1.5 -4.09375 -2.71875q-1.40625 -1.21875 -1.46875 -2.84375l-0.0625 -5.1875q-0.125 -9.0625 -0.40625 -15.03125q-0.28125 -5.96875 -1.21875 -12.9375q-0.9375 -6.96875 -2.875 -13.59375q-0.75 -2.5625 -0.75 -3.4375q0 -0.75 0.34375 -1.5q0.34375 -0.75 1.21875 -1.9375q3.375 -4.4375 8.0 -7.15625q4.625 -2.71875 8.4375 -3.84375q3.8125 -1.125 6.125 -1.4375q4.4375 3.0625 7.71875 7.40625q3.28125 4.34375 7.34375 11.09375l0.3125 -0.125q-0.5625 -7.125 -2.03125 -18.40625q-1.46875 -11.28125 -1.71875 -13.28125q-1.0 -7.625 -1.125 -8.875q1.125 -1.375 4.71875 -2.375q3.59375 -1.0 7.96875 -1.0q4.75 0 9.125 1.34375q4.375 1.34375 7.5 4.21875q0.0625 0.3125 0.0625 2.0625q0 6.5 -0.96875 21.5q-0.96875 15.0 -2.6875 29.9375q-1.71875 14.9375 -3.96875 22.5l10.6875 -5.75l5.5 7.5625zm-46.625 -3.75q3.0 -3.0 7.03125 -10.09375q4.03125 -7.09375 6.34375 -12.09375l0.125 -1.5l-0.0625 -3.5q-2.4375 -0.625 -8.0 -1.75l-5.1875 -1.125l0.125 6.6875q0.1875 10.3125 -2.25 22.5l1.875 0.875zm52.8125 12.5625q-0.875 -1.0 -1.34375 -2.09375q-0.46875 -1.09375 -0.46875 -2.65625q0 -0.5625 0.25 -2.1875l4.3125 -22.3125q-1.75 -9.0625 -3.40625 -21.21875q-1.65625 -12.15625 -2.71875 -21.875q-1.0625 -9.71875 -0.875 -10.65625q3.0625 -3.875 8.71875 -6.53125q5.65625 -2.65625 11.21875 -2.65625q5.75 0 9.3125 2.9375q-0.5 14.625 -1.84375 32.0625q-1.34375 17.4375 -4.15625 46.1875l8.9375 -4.1875l5.0 7.9375q-1.25 3.875 -3.9375 7.84375q-2.6875 3.96875 -6.25 6.625q-3.5625 2.65625 -7.25 2.65625q-3.875 0 -8.0 -2.9375q-4.125 -2.9375 -7.5 -6.9375zm58.3125 -25.4375q0.3125 -1.5 0.84375 -4.53125q0.53125 -3.03125 0.84375 -4.84375q1.6875 -10.4375 3.21875 -17.71875q1.53125 -7.28125 3.53125 -11.71875q3.9375 -0.875 8.0 -0.875q5.6875 0 10.53125 1.5625q4.84375 1.5625 7.90625 3.6875q0.5625 3.9375 0.5625 8.25q0 7.0625 -1.15625 14.46875q-1.15625 7.40625 -2.65625 13.46875q-4.6875 2.625 -9.875 2.625q-3.125 0 -7.0 -0.9375q0.0625 -2.1875 0.0625 -10.375q0 -6.0 -0.0625 -8.25l-3.0625 -0.5q-2.3125 6.8125 -6.875 24.4375l-2.1875 8.1875l11.4375 -1.5l3.5625 8.375q-3.6875 5.8125 -8.9375 8.65625q-5.25 2.84375 -11.375 2.84375q-3.5 0 -6.1875 -0.625q-2.6875 -0.625 -4.5625 -2.375q-1.0625 -0.9375 -2.46875 -2.875q-1.40625 -1.9375 -2.5 -4.34375q-1.09375 -2.40625 -1.09375 -4.59375q0 -1.375 0.4375 -2.5l5.0 -12.375l-11.1875 -38.0q2.4375 -3.5 6.75 -5.40625q4.3125 -1.90625 9.1875 -1.90625q5.125 0 9.0625 1.9375l-0.4375 37.625l0.6875 0.125z" fill-rule="nonzero"/></g></svg>